<!-- Generated by IcoMoon.io -->
<svg version="1.1" xmlns="http://www.w3.org/2000/svg" width="20" height="20" viewBox="0 0 20 20">
<path d="M14.566 16.002c-3.995 3.184-9.58 2.303-12.538-1.349-2.855-3.525-2.677-8.61 0.421-11.829 3.2-3.325 8.232-3.769 11.88-1.041 1.307 0.977 2.283 2.22 2.918 3.725 0.639 1.513 0.833 3.088 0.612 4.712-0.221 1.616-0.866 3.057-1.916 4.401 0.085 0.056 0.176 0.096 0.24 0.16 1.154 1.149 2.303 2.302 3.457 3.451 0.273 0.272 0.41 0.589 0.328 0.972-0.161 0.76-1.066 1.054-1.647 0.532-0.272-0.244-0.523-0.513-0.781-0.772-0.948-0.947-1.895-1.895-2.843-2.842-0.039-0.037-0.081-0.072-0.132-0.12zM15.953 8.986c0.010-3.86-3.106-6.98-6.975-6.986-3.858-0.006-6.972 3.090-6.988 6.947-0.017 3.869 3.093 6.998 6.973 7.017 3.842 0.018 6.98-3.114 6.99-6.978z"></path>
</svg>
