<!-- Generated by IcoMoon.io -->
<svg version="1.1" xmlns="http://www.w3.org/2000/svg" width="20" height="20" viewBox="0 0 20 20">
<path d="M10 18.887c-0.285 0-0.559-0.103-0.773-0.291-0.808-0.707-1.587-1.37-2.274-1.956l-0.004-0.003c-2.015-1.717-3.755-3.2-4.966-4.661-1.353-1.633-1.984-3.181-1.984-4.873 0-1.643 0.564-3.159 1.587-4.269 1.035-1.123 2.456-1.741 4.001-1.741 1.154 0 2.212 0.365 3.142 1.085 0.47 0.363 0.895 0.808 1.27 1.327 0.375-0.519 0.801-0.963 1.271-1.327 0.931-0.72 1.988-1.085 3.142-1.085 1.544 0 2.965 0.618 4.001 1.741 1.023 1.11 1.587 2.626 1.587 4.269 0 1.691-0.63 3.24-1.983 4.873-1.211 1.461-2.95 2.944-4.965 4.661-0.688 0.587-1.469 1.252-2.278 1.96-0.214 0.187-0.488 0.29-0.773 0.29zM5.587 2.265c-1.214 0-2.328 0.484-3.139 1.364-0.823 0.893-1.276 2.127-1.276 3.475 0 1.423 0.529 2.695 1.714 4.125 1.146 1.383 2.85 2.835 4.823 4.517l0.004 0.003c0.69 0.588 1.472 1.254 2.286 1.966 0.819-0.713 1.602-1.381 2.293-1.969 1.973-1.682 3.677-3.134 4.823-4.516 1.185-1.43 1.714-2.703 1.714-4.125 0-1.348-0.453-2.582-1.276-3.475-0.811-0.88-1.926-1.364-3.139-1.364-0.889 0-1.705 0.283-2.426 0.84-0.642 0.497-1.090 1.125-1.352 1.564-0.135 0.226-0.372 0.361-0.635 0.361s-0.5-0.135-0.635-0.361c-0.262-0.439-0.71-1.068-1.352-1.564-0.721-0.557-1.537-0.84-2.426-0.84z"></path>
</svg>
