<!-- Generated by IcoMoon.io -->
<svg version="1.1" xmlns="http://www.w3.org/2000/svg" width="20" height="20" viewBox="0 0 20 20">
<path d="M14.294 16.874h-6.053c-2.584 0-4.687-2.102-4.687-4.687v-4.804c0-2.402-1.197-4.626-3.203-5.948-0.36-0.237-0.46-0.722-0.222-1.082s0.722-0.46 1.082-0.222c1.145 0.755 2.074 1.75 2.738 2.897 0.144 0.161 1.301 1.388 3.198 1.388h8.995c2.454-0.046 4.375 2.417 3.733 4.786l-1.036 4.127c-0.524 2.088-2.393 3.546-4.546 3.546zM4.919 5.537c0.13 0.6 0.197 1.219 0.197 1.847v4.804c0 1.723 1.402 3.124 3.124 3.124h6.053c1.435 0 2.681-0.972 3.031-2.364l1.035-4.127c0.381-1.407-0.76-2.87-2.218-2.843h-8.995c-0.858 0-1.605-0.185-2.228-0.441zM7.85 19.023c0-0.539-0.437-0.976-0.976-0.976-1.296 0.052-1.294 1.902 0 1.953 0.539 0 0.976-0.437 0.976-0.976zM15.622 19.023c0-0.539-0.437-0.976-0.976-0.976-1.296 0.052-1.294 1.902 0 1.953 0.539 0 0.976-0.437 0.976-0.976zM16.923 8.321c0-0.431-0.35-0.781-0.781-0.781h-8.682c-1.036 0.041-1.036 1.521 0 1.562h8.682c0.431 0 0.781-0.35 0.781-0.781z"></path>
</svg>
